<svg xmlns="http://www.w3.org/2000/svg" width="100" height="21.555" viewBox="0 0 100 21.555"><g data-name="Grupo 58"><path data-name="Trazado 86" d="M10.736 20.589A10.534 10.534 0 0 1 0 10.3 10.534 10.534 0 0 1 10.736 0a10.534 10.534 0 0 1 10.735 10.3 10.534 10.534 0 0 1-10.735 10.289zm0-16.263A6.108 6.108 0 0 0 4.512 10.3a6.107 6.107 0 0 0 6.224 5.968 6.107 6.107 0 0 0 6.223-5.968 6.108 6.108 0 0 0-6.223-5.974z" transform="rotate(-90 10.757 10.757)" style="fill:#b5ea0f"></path><path data-name="Trazado 87" d="M10.778 20.671A10.576 10.576 0 0 1 0 10.335 10.576 10.576 0 0 1 10.778 0a10.575 10.575 0 0 1 10.777 10.335 10.575 10.575 0 0 1-10.777 10.336zm0-17.967a7.809 7.809 0 0 0-7.958 7.631 7.809 7.809 0 0 0 7.958 7.632 7.808 7.808 0 0 0 7.957-7.632A7.808 7.808 0 0 0 10.778 2.7z" transform="rotate(-90 50.442 -28.887)" style="fill:#b5ea0f"></path><path data-name="Trazado 88" d="M10.582 20.282A10.381 10.381 0 0 1 0 10.14 10.381 10.381 0 0 1 10.582 0a10.381 10.381 0 0 1 10.582 10.14 10.381 10.381 0 0 1-10.582 10.142zm0-13.792a3.737 3.737 0 0 0-3.81 3.651 3.737 3.737 0 0 0 3.81 3.652 3.737 3.737 0 0 0 3.81-3.652 3.737 3.737 0 0 0-3.81-3.651z" transform="rotate(-90 30.599 -9.24)" style="fill:#b5ea0f"></path><path data-name="Trazado 89" d="M6.1 11.309A5.9 5.9 0 0 1 0 5.654 5.9 5.9 0 0 1 6.1 0a5.9 5.9 0 0 1 6.1 5.654 5.9 5.9 0 0 1-6.1 5.655zm0-8.6a3.075 3.075 0 0 0-3.181 2.95A3.076 3.076 0 0 0 6.1 8.6a3.076 3.076 0 0 0 3.178-2.946A3.075 3.075 0 0 0 6.1 2.7z" transform="rotate(-90 50.442 -33.569)" style="fill:#b5ea0f"></path></g></svg>