<svg xmlns="http://www.w3.org/2000/svg" width="276.204" height="55.112" viewBox="0 0 276.204 55.112"><g data-name="Grupo 19"><g data-name="Grupo 18"><path data-name="Trazado 27" d="M229.341 592.338h11.941V607.1a11.683 11.683 0 0 1 4.024-2.789 12.933 12.933 0 0 1 4.983-.93 12.068 12.068 0 0 1 9.326 4.053q3.689 4.053 3.689 11.635a22.036 22.036 0 0 1-1.685 8.9 12.548 12.548 0 0 1-4.663 5.752 12.022 12.022 0 0 1-6.609 1.9 12.219 12.219 0 0 1-5.694-1.336 14.95 14.95 0 0 1-4.241-3.922v4.562h-11.071zm11.854 27.076q0 3.981 1.5 5.767a4.731 4.731 0 0 0 3.791 1.786 4.427 4.427 0 0 0 3.559-1.757q1.438-1.757 1.438-5.912 0-3.661-1.409-5.375a4.279 4.279 0 0 0-3.414-1.714 4.937 4.937 0 0 0-3.94 1.791q-1.52 1.783-1.525 5.414z" transform="translate(-213.907 -592.338)" style="fill:#2f2f2f"></path><path data-name="Trazado 28" d="M311.2 615.671h11.069v5.055a12.056 12.056 0 0 1 3.3-4.518 6.954 6.954 0 0 1 4.2-1.235 12.5 12.5 0 0 1 5.724 1.627l-3.661 8.425a9.291 9.291 0 0 0-3.312-.872 4.085 4.085 0 0 0-3.6 1.917q-1.83 2.7-1.83 10.111v10.343H311.2z" transform="translate(-255.843 -603.934)" style="fill:#2f2f2f"></path><path data-name="Trazado 29" d="M371.829 592.338h11.824v8.047h-11.824zm0 11.737h11.824v30.854h-11.824z" transform="translate(-286.904 -592.338)" style="fill:#b5ea0f"></path><path data-name="Trazado 30" d="M406.648 615.671h11.04v4.5a15.435 15.435 0 0 1 4.815-4.009 13.211 13.211 0 0 1 5.863-1.191 11.228 11.228 0 0 1 5.848 1.308 9.73 9.73 0 0 1 3.52 3.893 17.806 17.806 0 0 1 5.077-4.111 13.13 13.13 0 0 1 5.657-1.09 10.142 10.142 0 0 1 7.747 2.949q2.785 2.952 2.785 9.227v19.378h-11.853v-17.577a4.942 4.942 0 0 0-.811-3.109 3.56 3.56 0 0 0-2.953-1.6 4.177 4.177 0 0 0-3.359 1.511q-1.274 1.511-1.274 4.852v15.921H426.9v-17a10.64 10.64 0 0 0-.234-2.76 3.764 3.764 0 0 0-1.311-1.874 3.5 3.5 0 0 0-2.186-.712 4.209 4.209 0 0 0-3.353 1.54q-1.312 1.541-1.312 5.055v15.746h-11.856z" transform="translate(-304.742 -603.934)" style="fill:#b5ea0f"></path><path data-name="Trazado 31" d="m538.089 625.665-11.3-1.191a12.682 12.682 0 0 1 1.844-4.663 10.176 10.176 0 0 1 3.472-2.949 14.552 14.552 0 0 1 4.474-1.394 36.075 36.075 0 0 1 6.159-.494 48.945 48.945 0 0 1 8.541.6 10.981 10.981 0 0 1 5.375 2.484 8.721 8.721 0 0 1 2.382 3.7 13.39 13.39 0 0 1 .872 4.576v13.626a16.457 16.457 0 0 0 .276 3.414 15.31 15.31 0 0 0 1.206 3.152h-11.1a11.226 11.226 0 0 1-.872-1.816 13.4 13.4 0 0 1-.407-1.961 15.311 15.311 0 0 1-4.62 3.2 19.232 19.232 0 0 1-7.292 1.278q-5.52 0-8.381-2.557a8.123 8.123 0 0 1-2.862-6.3 8.258 8.258 0 0 1 2.063-5.781q2.062-2.266 7.612-3.37 6.653-1.336 8.629-1.874a40.05 40.05 0 0 0 4.184-1.409 4.161 4.161 0 0 0-.9-3.05 4.521 4.521 0 0 0-3.167-.872 8.191 8.191 0 0 0-4.358.93 5.094 5.094 0 0 0-1.83 2.721zm10.255 6.217q-2.441.872-5.084 1.54-3.6.959-4.561 1.889a3.025 3.025 0 0 0-.015 4.46 4.116 4.116 0 0 0 2.862.886 7.363 7.363 0 0 0 3.676-.958 5.806 5.806 0 0 0 2.411-2.339 7.824 7.824 0 0 0 .712-3.589z" transform="translate(-365.813 -603.934)" style="fill:#b5ea0f"></path><path data-name="Trazado 32" d="M632.485 615.671h11.069v29.14l.029 1.366a12.865 12.865 0 0 1-1.234 5.534 11.653 11.653 0 0 1-3.283 4.256 12.89 12.89 0 0 1-5.2 2.353 32.363 32.363 0 0 1-7.22.726q-9.3 0-12.768-2.789a9.087 9.087 0 0 1-3.472-7.467q0-.582.058-1.569l11.476 1.308a3.729 3.729 0 0 0 1.337 2.208 5.654 5.654 0 0 0 3.283.9 4.962 4.962 0 0 0 3.821-1.366q1.263-1.366 1.264-4.764v-4.677a11.511 11.511 0 0 1-9.384 4.445 11.7 11.7 0 0 1-9.994-5.4q-2.7-3.835-2.7-10.139 0-7.205 3.486-10.982a11.836 11.836 0 0 1 9.122-3.777 12.792 12.792 0 0 1 5.942 1.22 12.947 12.947 0 0 1 4.372 4.039zm-11.127 14.962a7.326 7.326 0 0 0 1.424 4.954 5.049 5.049 0 0 0 7.452-.058 7.358 7.358 0 0 0 1.5-5.041 7.585 7.585 0 0 0-1.569-5.157 4.915 4.915 0 0 0-3.835-1.786 4.443 4.443 0 0 0-3.617 1.641q-1.356 1.641-1.355 5.447z" transform="translate(-408.695 -603.934)" style="fill:#2f2f2f"></path><path data-name="Trazado 33" d="M689.4 616.4h12.477l6.363 20.54 5.911-20.54H725.8l-12.241 32.967q-2.092 5.64-4.269 7.617-3.078 2.791-9.38 2.791a67.756 67.756 0 0 1-7.9-.7l-.929-8.251a18.7 18.7 0 0 0 5.69.813 5.527 5.527 0 0 0 3.381-.96 7.272 7.272 0 0 0 2.192-3.432z" transform="translate(-449.594 -604.667)" style="fill:#2f2f2f"></path></g><path data-name="Trazado 34" d="M202.375 601.688a4.642 4.642 0 1 1 4.641-4.641 4.647 4.647 0 0 1-4.641 4.641zm0-7.333a2.691 2.691 0 1 0 2.691 2.691 2.694 2.694 0 0 0-2.691-2.69z" transform="translate(-197.715 -592.372)" style="fill:#bde844"></path><path data-name="Trazado 35" d="M202.355 671.277a4.66 4.66 0 1 1 4.66-4.66 4.666 4.666 0 0 1-4.66 4.66zm0-8.1a3.441 3.441 0 1 0 3.441 3.441 3.445 3.445 0 0 0-3.441-3.442z" transform="translate(-197.695 -628.004)" style="fill:#bde844"></path><path data-name="Trazado 36" d="M202.448 636.487a4.572 4.572 0 1 1 4.572-4.573 4.578 4.578 0 0 1-4.572 4.573zm0-6.219a1.646 1.646 0 1 0 1.646 1.646 1.648 1.648 0 0 0-1.646-1.646z" transform="translate(-197.788 -610.271)" style="fill:#bde844"></path><path data-name="Trazado 37" d="M204.573 671.384a2.549 2.549 0 1 1 2.55-2.55 2.553 2.553 0 0 1-2.55 2.55zm0-3.88a1.33 1.33 0 1 0 1.33 1.33 1.332 1.332 0 0 0-1.33-1.334z" transform="translate(-199.912 -630.221)" style="fill:#bde844"></path></g></svg>